<svg width="17" height="17" viewBox="0 0 17 17" fill="none" xmlns="http://www.w3.org/2000/svg">
<g id="Blank_fill">
<path id="Subtract" fill-rule="evenodd" clip-rule="evenodd" d="M4.32575 3.04297C3.30447 3.04297 2.47656 3.87088 2.47656 4.89215V12.8938C2.47656 13.9151 3.30447 14.743 4.32575 14.743H8.86798V11.8191L8.86798 11.7816V11.7816C8.86794 11.4002 8.8679 11.0545 8.9056 10.7741C8.94692 10.4668 9.04341 10.1474 9.30553 9.88526C9.56765 9.62313 9.88708 9.52664 10.1944 9.48533C10.4748 9.44763 10.8205 9.44766 11.2019 9.4477H11.2019L11.2394 9.44771H14.1766V4.89216C14.1766 3.87088 13.3487 3.04297 12.3274 3.04297H4.32575ZM13.9953 10.6805H11.2394C10.8083 10.6805 10.547 10.6818 10.3587 10.7071C10.2717 10.7188 10.2255 10.7329 10.2021 10.7426C10.1843 10.7499 10.1798 10.7544 10.1775 10.7567L10.1772 10.757L10.177 10.7573C10.1746 10.7596 10.1702 10.764 10.1628 10.7818C10.1532 10.8053 10.1391 10.8514 10.1274 10.9384C10.1021 11.1267 10.1008 11.388 10.1008 11.8191V14.568C10.293 14.4778 10.4701 14.3544 10.6232 14.2014L13.6349 11.1896C13.7844 11.0401 13.9057 10.8676 13.9953 10.6805Z" fill="#2F103A"/>
</g>
</svg>
