<svg width="17" height="17" viewBox="0 0 17 17" fill="none" xmlns="http://www.w3.org/2000/svg">
<path d="M8.32031 0.976562C3.89849 0.976562 0.320312 4.55474 0.320312 8.97656C0.320312 13.3984 3.89849 16.9766 8.32031 16.9766C12.7421 16.9766 16.3203 13.3984 16.3203 8.97656C16.3203 4.55474 12.7421 0.976562 8.32031 0.976562ZM9.28759 12.5111C9.27304 12.5766 9.25849 12.6347 9.2294 12.6929C9.20759 12.7511 9.17122 12.8093 9.14213 12.8602C9.10577 12.9111 9.06213 12.962 9.01849 13.0129C8.83668 13.1947 8.58213 13.3038 8.32031 13.3038C8.05849 13.3038 7.80395 13.1947 7.62213 13.0129C7.57849 12.9693 7.53486 12.9184 7.49849 12.8602C7.46213 12.8093 7.43304 12.7511 7.40395 12.6929C7.38213 12.6347 7.36031 12.5693 7.34577 12.5111C7.33122 12.4457 7.32395 12.3802 7.32395 12.3147C7.32395 12.2493 7.32395 12.1838 7.34577 12.1257C7.36031 12.0602 7.37486 12.002 7.40395 11.9438C7.42577 11.8857 7.46213 11.8275 7.49849 11.7766C7.53486 11.7257 7.57849 11.6747 7.62213 11.6238C7.80395 11.442 8.05849 11.3329 8.32031 11.3329C8.58213 11.3329 8.83668 11.4347 9.01849 11.6238C9.06213 11.6675 9.10577 11.7184 9.14213 11.7766C9.17849 11.8275 9.20759 11.8857 9.2294 11.9438C9.25122 12.002 9.27304 12.0675 9.28759 12.1257C9.30213 12.1911 9.3094 12.2566 9.3094 12.3147C9.3094 12.3729 9.3094 12.4457 9.28759 12.5111ZM9.02577 9.17293C9.02577 9.55838 8.71304 9.87838 8.32031 9.87838C7.92759 9.87838 7.61486 9.56565 7.61486 9.17293V6.01656C7.61486 5.63111 7.92759 5.31111 8.32031 5.31111C8.71304 5.31111 9.02577 5.62384 9.02577 6.01656V9.17293Z" fill="#92929D"/>
</svg>
