<svg width="24" height="24" viewBox="0 0 24 24" fill="none" xmlns="http://www.w3.org/2000/svg">
<path d="M19.1984 13.6855C20.4658 14.6324 21.5984 17.0165 21.5984 18.4855C21.5984 18.9431 21.2645 19.3141 20.8527 19.3141H20.3984M15.5984 9.80432C16.4183 9.33006 16.9699 8.44365 16.9699 7.4284C16.9699 6.41316 16.4183 5.52675 15.5984 5.05249M3.14421 19.3141H16.2812C16.6931 19.3141 17.027 18.9431 17.027 18.4855C17.027 15.6089 14.6237 13.2769 9.71272 13.2769C4.8017 13.2769 2.39844 15.6089 2.39844 18.4855C2.39844 18.9431 2.73233 19.3141 3.14421 19.3141ZM12.4556 7.4284C12.4556 8.94324 11.2276 10.1713 9.71272 10.1713C8.19788 10.1713 6.96987 8.94324 6.96987 7.4284C6.96987 5.91357 8.19788 4.68555 9.71272 4.68555C11.2276 4.68555 12.4556 5.91357 12.4556 7.4284Z" stroke="#FAFAFB" stroke-width="2" stroke-linecap="round"/>
</svg>
