<svg width="18" height="19" viewBox="0 0 18 19" fill="none" xmlns="http://www.w3.org/2000/svg">
<g id="Group_fill">
<circle id="Ellipse 46" cx="9" cy="6.89453" r="3" fill="#2F103A"/>
<circle id="Ellipse 47" cx="12.75" cy="6.89453" r="2.25" fill="#2F103A"/>
<circle id="Ellipse 48" cx="5.25" cy="6.89453" r="2.25" fill="#2F103A"/>
<path id="Subtract" fill-rule="evenodd" clip-rule="evenodd" d="M13.1741 13.6445H14.919C15.3627 13.6445 15.7029 13.2621 15.5951 12.8317C15.319 11.7289 14.5837 9.89453 12.7477 9.89453C12.0832 9.89453 11.5628 10.1349 11.1562 10.4939C12.2871 11.2275 12.8717 12.5122 13.1741 13.6445Z" fill="#2F103A"/>
<path id="Subtract_2" fill-rule="evenodd" clip-rule="evenodd" d="M6.84181 10.4939C6.43525 10.1349 5.9149 9.89453 5.25034 9.89453C3.4144 9.89453 2.67908 11.7289 2.40291 12.8317C2.29512 13.2621 2.63535 13.6445 3.07907 13.6445H4.82399C5.12631 12.5122 5.711 11.2275 6.84181 10.4939Z" fill="#2F103A"/>
<path id="Rectangle 4160" d="M9 10.6445C11.7815 10.6445 12.4999 13.1203 12.6854 14.3991C12.7449 14.809 12.4142 15.1445 12 15.1445H6C5.58579 15.1445 5.25513 14.809 5.3146 14.3991C5.50014 13.1203 6.21851 10.6445 9 10.6445Z" fill="#2F103A"/>
</g>
</svg>
