<svg width="14" height="16" viewBox="0 0 14 16" fill="none" xmlns="http://www.w3.org/2000/svg">
<g id="Sign_in_squre">
<path id="Rectangle 21" d="M3.03125 4.50099V4.16715C3.03125 2.78086 3.03125 2.08771 3.47679 1.70153C3.92234 1.31535 4.60846 1.4138 5.9807 1.61069L8.70748 2.00193C10.2923 2.22931 11.0847 2.34301 11.558 2.88906C12.0312 3.4351 12.0312 4.23561 12.0312 5.83662V9.4516C12.0312 11.0526 12.0312 11.8531 11.558 12.3992C11.0847 12.9452 10.2923 13.0589 8.70749 13.2863L5.9807 13.6775C4.60846 13.8744 3.92234 13.9729 3.47679 13.5867C3.03125 13.2005 3.03125 12.5074 3.03125 11.1211V10.915" stroke="#2F103A" stroke-width="1.09762" stroke-linecap="round"/>
<path id="Vector 9" d="M6.53516 4.59375L8.97656 7.64551M8.97656 7.64551L6.53516 10.6973M8.97656 7.64551H0.652344" stroke="#2F103A" stroke-width="1.0376" stroke-linecap="round"/>
</g>
</svg>
