<svg width="31" height="30" viewBox="0 0 31 30" fill="none" xmlns="http://www.w3.org/2000/svg">
<path d="M15.6856 0C12.7188 0 9.81874 0.879735 7.352 2.52796C4.88526 4.17618 2.96268 6.51886 1.82736 9.25975C0.692046 12.0006 0.394996 15.0166 0.973774 17.9264C1.55255 20.8361 2.98116 23.5088 5.07895 25.6066C7.17674 27.7044 9.84948 29.133 12.7592 29.7118C15.6689 30.2906 18.6849 29.9935 21.4258 28.8582C24.1667 27.7229 26.5094 25.8003 28.1576 23.3336C29.8058 20.8668 30.6856 17.9667 30.6856 15C30.6813 11.0231 29.0995 7.21026 26.2874 4.39815C23.4753 1.58604 19.6625 0.00430135 15.6856 0V0ZM15.6856 20C14.6966 20 13.7299 19.7068 12.9077 19.1573C12.0855 18.6079 11.4446 17.827 11.0662 16.9134C10.6877 15.9998 10.5887 14.9945 10.7816 14.0245C10.9746 13.0546 11.4508 12.1637 12.15 11.4645C12.8493 10.7652 13.7402 10.289 14.7101 10.0961C15.68 9.90315 16.6853 10.0022 17.599 10.3806C18.5126 10.759 19.2935 11.3999 19.8429 12.2222C20.3923 13.0444 20.6856 14.0111 20.6856 15C20.6856 16.3261 20.1588 17.5979 19.2211 18.5355C18.2834 19.4732 17.0116 20 15.6856 20ZM16.9356 15C16.9356 15.2472 16.8622 15.4889 16.7249 15.6945C16.5875 15.9 16.3923 16.0602 16.1639 16.1549C15.9355 16.2495 15.6842 16.2742 15.4417 16.226C15.1992 16.1778 14.9765 16.0587 14.8017 15.8839C14.6269 15.7091 14.5078 15.4863 14.4596 15.2439C14.4113 15.0014 14.4361 14.7501 14.5307 14.5216C14.6253 14.2932 14.7855 14.098 14.9911 13.9607C15.1967 13.8233 15.4383 13.75 15.6856 13.75C16.0171 13.75 16.335 13.8817 16.5694 14.1161C16.8039 14.3505 16.9356 14.6685 16.9356 15Z" fill="#35AD66"/>
</svg>
