<svg width="15" height="16" viewBox="0 0 15 16" fill="none" xmlns="http://www.w3.org/2000/svg">
<g id="fi-rr-menu-dots-vertical" clip-path="url(#clip0_2670_38172)">
<path id="Vector" d="M7.5 2.5625C8.19035 2.5625 8.75 2.00286 8.75 1.3125C8.75 0.622144 8.19035 0.0625 7.5 0.0625C6.80964 0.0625 6.25 0.622144 6.25 1.3125C6.25 2.00286 6.80964 2.5625 7.5 2.5625Z" fill="#9889A6"/>
<path id="Vector_2" d="M7.5 8.8125C8.19035 8.8125 8.75 8.25285 8.75 7.5625C8.75 6.87214 8.19035 6.3125 7.5 6.3125C6.80964 6.3125 6.25 6.87214 6.25 7.5625C6.25 8.25285 6.80964 8.8125 7.5 8.8125Z" fill="#9889A6"/>
<path id="Vector_3" d="M7.5 15.0625C8.19035 15.0625 8.75 14.5029 8.75 13.8125C8.75 13.1221 8.19035 12.5625 7.5 12.5625C6.80964 12.5625 6.25 13.1221 6.25 13.8125C6.25 14.5029 6.80964 15.0625 7.5 15.0625Z" fill="#9889A6"/>
</g>
<defs>
<clipPath id="clip0_2670_38172">
<rect width="15" height="15" fill="white" transform="translate(0 0.0625)"/>
</clipPath>
</defs>
</svg>
